# xmcd CD database file
#
# Track frame offsets:
#	150
#	9150
#	18450
#	35175
#	45375
#	57900
#	76050
#	93600
#	101700
#	108000
#	112950
#	122700
#	135975
#	142350
#	155175
#	161550
#	176100
#	180300
#	185475
#
# Disc length: 2541 seconds
#
# Revision: 0
# Processed by: cddbd v1.5.2PL0 Copyright (c) Steve Scherf et al.
# Submitted via: CDex 1.51
#
DISCID=f909eb13
DTITLE=Quintessential - Essential Quintessential
DYEAR=1993
DGENRE=Jazz
TTITLE0=Let's misbehave
TTITLE1=I got rhythm
TTITLE2=Blue Moon
TTITLE3=I've told every little star
TTITLE4=The Goslings
TTITLE5=The real American folk-song
TTITLE6=Bright eyes
TTITLE7=Let's do it
TTITLE8=I hold your hand in mine
TTITLE9=Tanzen und springen
TTITLE10=Of all the birds that I do know
TTITLE11=Ach, weh des Leiden
TTITLE12=I love, alas, I love thee
TTITLE13=Waters of Elle
TTITLE14=The bee
TTITLE15=Loreley
TTITLE16=Nonsense song 1
TTITLE17=Nonsense song 2
TTITLE18=Nonsens song 3
EXTD=YEAR: 1993
EXTT0=
EXTT1=
EXTT2=
EXTT3=
EXTT4=
EXTT5=
EXTT6=
EXTT7=
EXTT8=
EXTT9=
EXTT10=
EXTT11=
EXTT12=
EXTT13=
EXTT14=
EXTT15=
EXTT16=
EXTT17=
EXTT18=
PLAYORDER=
